<svg width="512" height="512" viewBox="0 0 512 512" fill="none" xmlns="http://www.w3.org/2000/svg">
<g id="clock">
<g id="grupo-clock">
<rect id="minutos" x="232.5" y="127.5" width="32" height="160" rx="16" fill="black" stroke="white"/>
<rect id="hora" x="228.703" y="275.728" width="32" height="112.826" rx="16" transform="rotate(-51.4478 228.703 275.728)" fill="black" stroke="black"/>
<path id="Vector" d="M237 0.69998C199.9 4.19998 171.7 12.1 140.9 27.6C116.4 39.8 96.5 54.4 75.4 75.4C53 97.9 38.8 117.7 25.4 145.5C9.59998 178.1 1.69998 210.5 0.299982 247.5C-1.20002 290.1 7.59998 330.7 26.6 368.9C39.9 395.8 53.7 414.8 75.4 436.6C97.5 458.6 116.6 472.3 143.5 485.5C162.3 494.7 174.4 499.2 193.5 504C243.5 516.6 293.8 514.1 342.4 496.9C355.7 492.2 379.7 480.6 391 473.4C451.2 435.2 493.3 374.5 506.9 306.5C510.7 287.7 511.5 278.8 511.5 256C511.5 233.2 510.7 224.3 506.9 205.5C493.7 139.3 453.4 79.9 396 41.9C382.9 33.2 354.9 19.3 341 14.5C320.6 7.49998 299.7 2.99998 278.5 0.99998C268.3 0.0999802 245.2 -0.10002 237 0.69998ZM288 36.5C336.3 43.8 377.9 64.8 412.5 99.5C447.4 134.3 468.1 175.5 475.7 225C478.1 240.7 478.1 271.3 475.7 287C469.8 325.6 455.8 359 432.7 390C423.6 402.2 402.2 423.6 390 432.7C349.6 462.8 305.9 477.4 256 477.4C206.2 477.4 162.3 462.7 122.2 432.7C76 398 45.4 346.1 36.4 287C33.9 271.1 33.9 240.6 36.3 225C47.8 150.7 92.2 89.7 158.5 57C184.1 44.4 207.5 38 240.5 34.6C248.3 33.8 277.7 35 288 36.5Z" fill="black"/>
</g>
</g>
</svg>
