<svg width="512" height="512" viewBox="0 0 512 512" fill="none" xmlns="http://www.w3.org/2000/svg">
<g id="download">
<g id="grupo-download">
<path id="Vector" d="M249.5 33.4C245.8 35.1 242.5 38.6 241.1 42.3C240.3 44.3 240 89 240 187.3V329.5L195.8 285.3C147.8 237.5 149.4 238.8 140.3 240.5C135.4 241.4 129.4 247.4 128.5 252.3C126.7 261.6 124.1 258.4 188.8 323.2C253.6 388 250.4 385.2 259.7 383.5C263.1 383 270.4 375.9 323.2 323.2C387.9 258.4 385.3 261.6 383.5 252.3C382.6 247.4 376.6 241.4 371.7 240.5C362.6 238.8 364.2 237.5 316.3 285.3L272 329.4L271.8 185.8C271.5 42.5 271.5 42.1 269.4 39.4C268.3 37.9 266.2 35.7 264.8 34.7C261.4 32.2 253.5 31.5 249.5 33.4Z" fill="black"/>
<path id="Vector_2" d="M41.5 369.4C37.4 371.2 33.2 376.3 32.5 380.3C32.1 382.1 32 399.9 32.2 420L32.5 456.5L35.9 462.8C39.7 469.8 42.8 472.8 50.4 476.8L55.5 479.5H256H456.5L461.6 476.8C469.2 472.8 472.3 469.8 476.1 462.8L479.5 456.5V417.3C479.5 379.3 479.4 378.1 477.4 375.4C473.5 370.1 470.3 368.5 464 368.5C457.7 368.5 454.5 370.1 450.6 375.4C448.6 378 448.5 379.6 448.2 413.1L447.9 448H256H64.1L63.8 413.1C63.5 379.6 63.4 378 61.4 375.4C60.3 373.9 58.2 371.7 56.8 370.7C53.5 368.2 45.5 367.5 41.5 369.4Z" fill="black"/>
</g>
</g>
</svg>
