<svg width="512" height="512" viewBox="0 0 512 512" fill="none" xmlns="http://www.w3.org/2000/svg">
<g id="folder" clip-path="url(#clip0_2_9)">
<g id="grupo-folder">
<path id="Vector" d="M54.5 40C34.5 42.8 16 56 7.09999 74.1C-0.400007 89.3 -7.07549e-06 78.2 -7.07549e-06 256C-7.07549e-06 433.9 -0.400007 422.7 7.09999 438C15 453.8 31.4 466.8 49 471.2C53.5 472.3 90.6 472.5 256 472.5C421.4 472.5 458.5 472.3 463 471.2C480.6 466.8 497 453.8 504.9 438C512.3 422.9 512 429.6 512 295.5C512 161.4 512.3 168.2 504.9 153C497.4 137.7 482.8 125.7 465 120.3C460.1 118.8 449.8 118.5 369.5 118C279.7 117.5 279.5 117.5 275.5 115.3C273.1 114.1 261.2 102.3 246.2 86.3C217.9 56.4 212.4 51.3 202.9 46.5C189.2 39.5 191.3 39.7 122.5 39.4C88.4 39.3 57.8 39.6 54.5 40ZM184.1 80.1C188.1 81.9 193.5 87 215.7 110.4C244.7 141 249.5 145.4 258.5 149.8C272.7 156.9 265.9 156.4 366 157C449.1 157.5 456.8 157.6 459.6 159.2C464.2 161.7 469 166.9 471.1 171.5C472.9 175.3 473 181.4 473 295.5C473 409.6 472.9 415.7 471.1 419.5C468.9 424.3 464.1 429.2 459.1 431.7C455.7 433.4 446 433.5 256 433.5C66 433.5 56.3 433.4 52.9 431.7C47.9 429.2 43.1 424.3 40.9 419.5C39.1 415.7 39 408.3 39 256C39 100.7 39.1 96.4 41 92.5C42 90.3 43.5 87.8 44.2 87C46.4 84.4 52.3 80.3 55.5 79.2C57.5 78.5 79.5 78.1 118.8 78.1C178.1 78 179.2 78 184.1 80.1Z" fill="black"/>
<path id="arrow-folder" d="M298.263 401.977C299.983 401.309 302.369 400.026 303.534 399.155C307.805 395.977 407.882 302.937 409.267 300.788C411.371 297.665 412.584 292.908 412.132 289.279C411.34 282.533 414.346 285.543 355.689 231.677C311.445 191.074 301.429 182.148 298.926 180.977C294.59 178.992 287.701 178.648 283.094 180.294C278.153 182.042 274.604 184.912 272.501 188.955C270.952 192.025 270.787 192.792 270.796 197.189C270.813 205.624 269.922 204.552 302.09 234.393C317.339 248.574 331.808 261.734 334.312 263.723C336.816 265.762 340.876 268.361 343.6 269.634L348.382 271.925L246.34 272.387L144.298 272.849L141.134 274.031C136.638 275.727 132.257 279.57 130.044 283.767C128.384 286.837 128.219 287.604 128.227 291.541C128.289 295.119 128.514 296.397 129.741 298.797C131.693 302.678 135.255 306.096 139.37 308.031L142.706 309.66L245.749 309.707L348.792 309.754L343.52 312.321L338.248 314.836L306.312 344.347C269.441 378.366 271.159 376.318 271.176 385.06C271.185 389.609 271.354 390.478 272.748 393.031C273.584 394.615 275.533 397.013 277.036 398.288C281.042 401.756 284.044 402.824 290.099 403.016C294.377 403.161 295.543 403.005 298.263 401.977Z" fill="black"/>
</g>
</g>
<defs>
<clipPath id="clip0_2_9">
<rect width="512" height="512" fill="white"/>
</clipPath>
</defs>
</svg>
