<svg width="1492" height="320" viewBox="0 0 1492 320" fill="none" xmlns="http://www.w3.org/2000/svg">
<path d="M0 288H17.9431C35.9912 288 72.4021 288 108.078 261.3C143.86 235 179.431 181 216.157 144C251.833 107 287.51 85 324.235 106.7C359.807 128 395.588 192 431.265 218.7C467.675 245 503.667 235 539.343 213.3C575.649 192 611.745 160 647.422 160C683.518 160 719.824 192 755.5 213.3C791.491 235 827.902 245 863.578 218.7C899.36 192 934.931 128 971.657 101.3C1007.33 75 1043.01 85 1079.74 112C1115.31 139 1151.09 181 1186.76 218.7C1223.18 256 1259.17 288 1294.84 266.7C1331.15 245 1367.25 171 1402.92 128C1439.02 85 1475.32 75 1493.16 69.3L1511 64V320H1493.06C1475.01 320 1438.6 320 1402.92 320C1367.14 320 1331.57 320 1294.84 320C1259.17 320 1223.49 320 1186.76 320C1151.19 320 1115.41 320 1079.74 320C1043.32 320 1007.33 320 971.657 320C935.351 320 899.255 320 863.578 320C827.482 320 791.176 320 755.5 320C719.509 320 683.098 320 647.422 320C611.64 320 576.069 320 539.343 320C503.667 320 467.99 320 431.265 320C395.693 320 359.912 320 324.235 320C287.825 320 251.833 320 216.157 320C179.851 320 143.755 320 108.078 320C71.9824 320 35.6764 320 17.8382 320H0V288Z" fill="url(#paint0_linear_1_49)"/>
<defs>
<linearGradient id="paint0_linear_1_49" x1="1412" y1="117.5" x2="-4.55517e-05" y2="320" gradientUnits="userSpaceOnUse">
<stop stop-color="#4A9DD9" stop-opacity="0.770833"/>
<stop stop-color="#4D4AD9" stop-opacity="0.68"/>
<stop offset="1" stop-color="#D94A5B" stop-opacity="0.51"/>
</linearGradient>
</defs>
</svg>
