<svg width="325" height="344" viewBox="0 0 325 344" fill="none" xmlns="http://www.w3.org/2000/svg">
<path d="M124.416 54.738C132.925 54.738 139.823 47.8477 139.823 39.348C139.823 30.8483 132.925 23.9579 124.416 23.9579C115.907 23.9579 109.009 30.8483 109.009 39.348C109.009 47.8477 115.907 54.738 124.416 54.738Z" fill="#FDE565"/>
<path d="M158.898 32.0605C158.463 30.6374 157.621 29.3722 156.476 28.4208C155.331 27.4694 153.932 26.8733 152.452 26.7058C152.418 26.703 152.383 26.703 152.348 26.7058C152.307 26.6929 152.265 26.6833 152.221 26.677C147.063 26.0084 141.327 27.6338 137.467 31.1729C136.034 32.4659 134.888 34.0446 134.103 35.8071C133.387 34.8307 132.444 34.0433 131.355 33.513C130.266 32.9827 129.064 32.7255 127.854 32.7637C126.292 32.8668 124.8 33.4485 123.582 34.4295C122.363 35.4104 121.477 36.7429 121.045 38.2452C120.997 38.4287 121.01 38.6227 121.082 38.7982C121.154 38.9738 121.28 39.1214 121.443 39.2193C121.907 39.6158 122.459 39.8963 123.053 40.0378C124.328 40.3087 125.615 40.5565 126.902 40.7813C129.417 41.2194 131.947 41.5748 134.489 41.8476C136.169 42.0263 137.852 42.1685 139.538 42.2742C143.024 42.4932 146.526 42.5451 150.017 42.4356C151.748 42.3779 153.41 42.3203 154.991 41.5594C156.143 40.9935 157.128 40.1372 157.848 39.0752C158.525 38.0536 158.97 36.8962 159.152 35.6842C159.333 34.4723 159.246 33.2354 158.898 32.0605V32.0605Z" fill="#25862F"/>
<path d="M127.202 54.4821C127.172 53.8373 127.064 53.1984 126.879 52.58C126.442 51.157 125.599 49.8923 124.453 48.941C123.307 47.9898 121.908 47.3935 120.427 47.2254C120.395 47.2225 120.362 47.2225 120.329 47.2254C120.286 47.213 120.241 47.2034 120.197 47.1965C117.341 46.8472 114.444 47.1447 111.72 48.0669C107.531 49.4675 103.855 52.2918 102.084 56.3265C101.367 55.3495 100.423 54.5618 99.3333 54.0315C98.2434 53.5012 97.0404 53.2443 95.8287 53.2832C94.2671 53.3863 92.7754 53.968 91.5569 54.9489C90.3384 55.9299 89.4524 57.2624 89.0198 58.7647C88.9749 58.9482 88.9892 59.1413 89.0607 59.3162C89.1322 59.4912 89.2572 59.6391 89.4179 59.7388C89.8827 60.1342 90.4342 60.4146 91.0278 60.5573C92.3088 60.8282 93.5898 61.076 94.8824 61.3008C97.3982 61.7389 99.9256 62.0943 102.464 62.3671C107.623 62.9203 112.813 63.1167 117.998 62.955C119.723 62.8974 121.391 62.8397 122.972 62.0789C124.122 61.5127 125.105 60.6564 125.823 59.5947C126.834 58.089 127.319 56.2916 127.202 54.4821Z" fill="#E6E6E6"/>
<path d="M241.272 248.701H227.227V29.6899C226.281 28.9925 225.329 28.3008 224.365 27.6265C224.175 27.4939 223.985 27.3613 223.794 27.2287C212.686 19.4675 200.67 13.0914 188.013 8.24244L185.289 45.7655L185.289 45.7678H167.765V1.95401C166.622 1.67158 165.48 1.40644 164.326 1.15859V45.7678H98.1523V4.57764e-05C97.004 0.21331 95.8557 0.432341 94.7132 0.668661V45.7678H76.612L76.6118 45.7655L73.7556 6.41528C61.4381 10.6802 49.6664 16.3796 38.6839 23.3957C38.303 23.6378 37.9222 23.8799 37.5414 24.1335C36.7739 24.6292 36.0065 25.1364 35.2506 25.6494V248.701H15.4758C12.9458 248.7 10.4541 249.318 8.21905 250.502C5.98401 251.686 4.07392 253.4 2.65624 255.493C1.23856 257.587 0.356579 259.995 0.0876366 262.508C-0.181306 265.021 0.170996 267.561 1.11365 269.907C1.39648 270.616 1.7341 271.302 2.12345 271.958C2.62632 272.815 3.20985 273.622 3.86608 274.368C5.31569 276.018 7.10122 277.34 9.10335 278.245C11.1055 279.151 13.2781 279.619 15.4759 279.619H241.272C245.377 279.619 249.313 277.99 252.215 275.091C255.118 272.192 256.748 268.26 256.748 264.16C256.748 260.06 255.118 256.128 252.215 253.229C249.313 250.33 245.377 248.701 241.272 248.701L241.272 248.701ZM181.515 97.861L170.592 248.701H91.3087L80.3857 97.861H181.515ZM185.041 49.2024L182.346 86.4119H167.765V49.2024H185.041ZM164.326 49.2024V86.4119H137.995C137.467 85.3784 136.664 84.5107 135.674 83.9045C134.684 83.2984 133.546 82.9774 132.384 82.9772H128.946C127.785 82.9774 126.646 83.2984 125.656 83.9045C124.666 84.5107 123.863 85.3784 123.336 86.4119H98.1523V49.2024H164.326ZM94.7132 86.4119H79.5547L76.8601 49.2024H94.7132V86.4119Z" fill="#1B0B0B"/>
<path d="M236.43 290.39L17.784 289.815C12.3322 284.93 7.20975 279.69 2.45007 274.131L251.767 274.702C247.006 280.263 241.883 285.504 236.43 290.39Z" fill="#25862F" stroke="black"/>
<path d="M111.977 217.828V276.942H153.436V217.828C153.437 217.402 153.301 216.988 153.049 216.646C152.796 216.304 152.44 216.051 152.034 215.926C151.842 215.862 151.641 215.831 151.439 215.833H113.979C113.716 215.833 113.456 215.884 113.213 215.984C112.971 216.084 112.75 216.231 112.564 216.416C112.378 216.601 112.23 216.821 112.13 217.063C112.029 217.306 111.977 217.565 111.977 217.828V217.828ZM128.156 238.14C128.167 236.974 128.639 235.861 129.467 235.04C130.296 234.22 131.416 233.76 132.582 233.76C133.749 233.76 134.868 234.22 135.697 235.04C136.526 235.861 136.997 236.974 137.008 238.14V244.999C137.002 246.167 136.533 247.286 135.704 248.11C134.874 248.934 133.752 249.397 132.582 249.397C131.412 249.397 130.29 248.934 129.461 248.11C128.631 247.286 128.162 246.167 128.156 244.999V238.14Z" fill="#2F2E41"/>
<path d="M111.85 275.052V280.752C111.851 281.048 111.968 281.331 112.177 281.54C112.385 281.749 112.668 281.868 112.963 281.87H152.449C152.745 281.869 153.028 281.751 153.237 281.541C153.446 281.331 153.563 281.048 153.563 280.752V275.052H111.85Z" fill="#3F3D56"/>
<path d="M46.7552 128.764V236.699C46.7563 238.074 47.3038 239.393 48.2775 240.366C49.2512 241.338 50.5715 241.885 51.9485 241.886H212.073C213.45 241.885 214.771 241.338 215.744 240.366C216.718 239.393 217.266 238.074 217.267 236.699V128.764C217.263 127.389 216.715 126.073 215.742 125.101C214.768 124.13 213.449 123.584 212.073 123.582H51.9485C50.5727 123.584 49.2537 124.13 48.2803 125.101C47.3069 126.073 46.7585 127.389 46.7552 128.764V128.764Z" fill="#3F3D56"/>
<path d="M50.5117 130.107V235.367C50.513 236.102 50.8058 236.807 51.3261 237.326C51.8463 237.846 52.5515 238.138 53.2872 238.14H210.741C211.476 238.138 212.182 237.846 212.702 237.326C213.222 236.807 213.515 236.102 213.516 235.367V130.107C213.516 129.371 213.224 128.665 212.703 128.144C212.183 127.624 211.477 127.33 210.741 127.329H53.2872C52.5506 127.33 51.8447 127.624 51.3244 128.144C50.8041 128.665 50.5118 129.371 50.5117 130.107V130.107Z" fill="#D3F500"/>
<path d="M82.6175 283.213C82.7777 283.414 82.9815 283.576 83.2133 283.687C83.4452 283.798 83.6992 283.854 83.9562 283.853H177.631C177.887 283.853 178.14 283.796 178.371 283.685C178.602 283.575 178.806 283.415 178.967 283.216C179.129 283.017 179.244 282.785 179.304 282.536C179.364 282.288 179.368 282.029 179.316 281.778L177.862 274.879C177.801 274.597 177.672 274.336 177.484 274.117C177.297 273.899 177.057 273.731 176.788 273.628C176.593 273.552 176.386 273.513 176.177 273.513H85.4045C85.1952 273.513 84.9877 273.552 84.7929 273.628C84.5237 273.731 84.2846 273.899 84.0971 274.117C83.9096 274.336 83.7799 274.597 83.7196 274.879L82.2655 281.778C82.2138 282.029 82.2185 282.287 82.2794 282.535C82.3403 282.784 82.4558 283.015 82.6175 283.213Z" fill="#2F2E41"/>
<path d="M85.4045 274.954C85.376 274.954 85.3477 274.959 85.3211 274.969C85.2752 274.984 85.2339 275.011 85.201 275.046C85.168 275.082 85.1443 275.125 85.132 275.172L83.6771 282.075C83.6694 282.115 83.6706 282.156 83.6807 282.196C83.6909 282.235 83.7096 282.272 83.7357 282.303L83.7421 282.311C83.7672 282.343 83.7997 282.37 83.8369 282.387C83.8742 282.405 83.9151 282.413 83.9563 282.412H177.631C177.672 282.413 177.712 282.404 177.749 282.386C177.786 282.369 177.819 282.343 177.844 282.311C177.872 282.281 177.891 282.244 177.902 282.204C177.913 282.164 177.914 282.123 177.905 282.082L176.45 275.175C176.439 275.13 176.418 275.088 176.387 275.053C176.357 275.018 176.318 274.991 176.275 274.974C176.244 274.961 176.21 274.954 176.177 274.954H85.4045Z" fill="white"/>
<path d="M58.3496 141.829H205.678C205.831 141.825 205.977 141.762 206.084 141.653C206.191 141.543 206.251 141.396 206.251 141.243C206.251 141.09 206.191 140.943 206.084 140.834C205.977 140.725 205.831 140.662 205.678 140.658H58.3496C58.1965 140.662 58.0508 140.725 57.9437 140.834C57.8366 140.943 57.7766 141.09 57.7766 141.243C57.7766 141.396 57.8366 141.543 57.9437 141.653C58.0508 141.762 58.1965 141.825 58.3496 141.829Z" fill="#3F3D56"/>
<path d="M195.649 137.67C197.546 137.67 199.083 136.1 199.083 134.164C199.083 132.227 197.546 130.658 195.649 130.658C193.753 130.658 192.216 132.227 192.216 134.164C192.216 136.1 193.753 137.67 195.649 137.67Z" fill="#3F3D56"/>
<path d="M183.788 137.67C185.684 137.67 187.221 136.1 187.221 134.164C187.221 132.227 185.684 130.658 183.788 130.658C181.892 130.658 180.354 132.227 180.354 134.164C180.354 136.1 181.892 137.67 183.788 137.67Z" fill="#3F3D56"/>
<path d="M171.927 137.67C173.823 137.67 175.36 136.1 175.36 134.164C175.36 132.227 173.823 130.658 171.927 130.658C170.03 130.658 168.493 132.227 168.493 134.164C168.493 136.1 170.03 137.67 171.927 137.67Z" fill="#3F3D56"/>
<path d="M183.726 159.693H80.3014C78.9427 159.695 77.6401 160.235 76.6794 161.194C75.7187 162.154 75.1782 163.455 75.1766 164.812V215.095C75.1782 216.452 75.7186 217.753 76.6793 218.713C77.64 219.673 78.9427 220.213 80.3014 220.214H183.726C185.085 220.213 186.388 219.673 187.348 218.713C188.309 217.753 188.849 216.452 188.851 215.095V164.812C188.849 163.455 188.309 162.154 187.348 161.194C186.387 160.235 185.085 159.695 183.726 159.693ZM187.697 164.812V179.483H151.344V160.846H183.726C184.779 160.847 185.788 161.266 186.533 162.009C187.277 162.753 187.696 163.761 187.697 164.812H187.697ZM113.837 199.272V180.635H150.19V199.272H113.837ZM150.19 200.425V219.062H113.837V200.425H150.19ZM112.683 199.272H76.3307V180.635H112.683V199.272ZM113.837 179.483V160.846H150.19V179.483H113.837ZM151.344 180.635H187.697V199.272H151.344V180.635ZM80.3014 160.846H112.683V179.483H76.3307V164.812C76.3319 163.761 76.7506 162.753 77.495 162.009C78.2394 161.266 79.2487 160.847 80.3014 160.846V160.846ZM76.3307 215.095V200.425H112.683V219.062H80.3014C79.2486 219.06 78.2393 218.642 77.4949 217.898C76.7505 217.155 76.3318 216.147 76.3307 215.095V215.095ZM183.726 219.062H151.344V200.425H187.697V215.095C187.696 216.147 187.277 217.155 186.533 217.898C185.788 218.642 184.779 219.06 183.726 219.062H183.726Z" fill="#3F3D56"/>
<path d="M126.757 172.459C125.84 170.943 124.752 169.324 123.049 168.829C121.076 168.256 119.05 169.395 117.331 170.519C112.192 173.88 107.242 177.523 102.505 181.431L102.51 181.489L113.574 180.727C116.238 180.544 118.994 180.335 121.349 179.076C122.243 178.598 123.114 177.96 124.126 177.915C125.384 177.86 126.481 178.738 127.343 179.655C132.442 185.078 133.917 193.372 139.638 198.137C136.031 189.251 131.724 180.665 126.757 172.459V172.459Z" fill="#DB261A"/>
<path d="M158.099 218.462C157.536 217.751 157.305 217.584 156.749 216.866C152.22 211.015 147.964 204.967 143.979 198.721C141.273 194.479 138.7 190.155 136.262 185.75C135.102 183.656 133.973 181.545 132.876 179.418C132.024 177.769 131.192 176.11 130.379 174.441C130.146 173.964 129.92 173.485 129.695 173.005C129.165 171.877 128.645 170.742 128.087 169.629C127.51 168.292 126.626 167.11 125.508 166.177C124.976 165.773 124.34 165.529 123.675 165.472C122.737 165.478 121.819 165.741 121.021 166.232C114.979 169.405 109.339 173.289 104.222 177.803C99.098 182.299 94.5177 187.377 90.5748 192.936C90.4542 193.108 90.1689 192.944 90.2907 192.77C90.7701 192.093 91.259 191.423 91.7575 190.761C97.9551 182.527 105.554 175.446 114.208 169.843C115.664 168.9 117.147 168.002 118.658 167.148C119.419 166.717 120.184 166.292 120.961 165.893C121.707 165.457 122.543 165.198 123.405 165.137C126.369 165.091 127.904 168.444 128.958 170.701C129.289 171.411 129.625 172.119 129.964 172.825C131.247 175.504 132.578 178.159 133.96 180.789C134.812 182.413 135.683 184.028 136.573 185.633C139.342 190.631 142.285 195.528 145.402 200.324C149.531 206.677 153.628 212.289 158.332 218.229C158.462 218.394 158.23 218.628 158.099 218.462Z" fill="white"/>
<path d="M103.929 176.147C103.757 175.955 103.586 175.764 103.413 175.572C102.046 174.062 100.579 172.569 98.7019 171.704C97.8069 171.278 96.8298 171.051 95.8385 171.041C94.8157 171.069 93.8072 171.288 92.8655 171.688C92.4179 171.867 91.9801 172.07 91.549 172.285C91.0564 172.533 90.5726 172.797 90.091 173.063C89.187 173.563 88.2947 174.085 87.4142 174.628C85.6622 175.71 83.965 176.874 82.3227 178.121C81.4713 178.767 80.6375 179.435 79.8213 180.124C79.0621 180.764 78.3183 181.421 77.5899 182.096C77.4341 182.239 77.2015 182.007 77.3573 181.863C77.5493 181.685 77.7435 181.507 77.9377 181.332C78.4862 180.836 79.0435 180.351 79.6096 179.874C80.6419 179.004 81.701 178.168 82.7867 177.365C84.4751 176.115 86.2217 174.951 88.0263 173.871C88.9281 173.332 89.8424 172.815 90.769 172.322C91.0488 172.173 91.3318 172.027 91.6181 171.889C92.2678 171.561 92.9429 171.287 93.6368 171.068C94.6196 170.75 95.6596 170.648 96.6855 170.769C97.6761 170.913 98.6305 171.243 99.4984 171.741C101.341 172.77 102.771 174.361 104.162 175.914C104.302 176.072 104.071 176.305 103.929 176.147Z" fill="white"/>
<path d="M141.693 191.796L146.11 190.182L148.302 189.381C149.011 189.096 149.733 188.848 150.467 188.636C151.109 188.453 151.79 188.462 152.427 188.661C152.995 188.871 153.514 189.193 153.955 189.608C154.405 190.022 154.824 190.469 155.209 190.945C155.686 191.518 156.156 192.097 156.629 192.674C158.579 195.056 160.516 197.449 162.441 199.852C164.365 202.254 166.276 204.667 168.175 207.091C170.079 209.52 171.969 211.959 173.846 214.408C174.076 214.708 174.306 215.009 174.535 215.309C174.662 215.475 174.948 215.311 174.819 215.143C172.928 212.669 171.024 210.205 169.107 207.751C167.185 205.292 165.249 202.842 163.301 200.404C161.352 197.965 159.39 195.537 157.415 193.119C156.923 192.517 156.431 191.915 155.937 191.314C155.521 190.807 155.109 190.295 154.652 189.823C154.263 189.355 153.786 188.968 153.247 188.685C152.708 188.401 152.119 188.227 151.513 188.171C150.778 188.197 150.055 188.355 149.377 188.64C148.639 188.907 147.902 189.178 147.165 189.448L142.718 191.073L141.606 191.479C141.408 191.551 141.494 191.869 141.693 191.796V191.796Z" fill="white"/>
<path d="M98.1207 173.604C96.9859 173.045 95.7226 172.798 94.4607 172.888C93.1988 172.979 91.9836 173.403 90.9398 174.117C94.8737 174.795 98.7645 175.702 102.592 176.833C101.003 175.903 99.7594 174.445 98.1207 173.604Z" fill="#E81919"/>
<path d="M90.9177 174.113L90.4857 174.464C90.6318 174.341 90.7837 174.226 90.9398 174.117L90.9177 174.113Z" fill="white"/>
<path d="M153.789 191.812C153.402 191.243 152.863 190.793 152.234 190.515L151.627 190.539C156.248 198.696 162.49 205.824 169.968 211.485L153.789 191.812Z" fill="#E81919"/>
<path d="M150.949 182.881C152.879 182.881 154.445 181.317 154.445 179.388C154.445 177.46 152.879 175.896 150.949 175.896C149.018 175.896 147.452 177.46 147.452 179.388C147.452 181.317 149.018 182.881 150.949 182.881Z" fill="#E81919"/>
<path d="M201.684 218.197C202.372 218.196 203.032 217.922 203.519 217.436C204.005 216.95 204.279 216.291 204.28 215.603V161.999C204.28 161.311 204.007 160.651 203.52 160.165C203.033 159.678 202.372 159.405 201.684 159.405C200.995 159.405 200.334 159.678 199.847 160.165C199.361 160.651 199.087 161.311 199.087 161.999V215.603C199.088 216.291 199.362 216.95 199.849 217.436C200.335 217.922 200.995 218.196 201.684 218.197V218.197Z" fill="#3F3D56"/>
<path d="M201.684 218.197C202.372 218.196 203.032 217.922 203.519 217.436C204.005 216.95 204.279 216.291 204.28 215.603V204.237C203.981 203.829 203.59 203.498 203.139 203.27C202.688 203.042 202.189 202.923 201.684 202.923C201.178 202.923 200.679 203.042 200.228 203.27C199.777 203.498 199.386 203.829 199.087 204.237V215.603C199.088 216.291 199.362 216.95 199.849 217.436C200.335 217.922 200.995 218.196 201.684 218.197V218.197Z" fill="#2F2E41"/>
<path d="M201.684 207.246C202.424 207.244 203.134 206.95 203.657 206.427C204.181 205.904 204.475 205.196 204.476 204.456V192.232C204.155 191.794 203.734 191.437 203.249 191.192C202.764 190.946 202.227 190.818 201.684 190.818C201.14 190.818 200.603 190.946 200.118 191.192C199.633 191.437 199.213 191.794 198.891 192.232V204.456C198.892 205.196 199.187 205.904 199.71 206.427C200.234 206.95 200.943 207.244 201.684 207.246V207.246Z" fill="#F50057"/>
<path d="M201.684 205.023C202.224 205.022 202.741 204.807 203.123 204.426C203.505 204.045 203.72 203.528 203.72 202.988V194.072C203.486 193.752 203.179 193.493 202.825 193.314C202.471 193.134 202.08 193.041 201.684 193.041C201.287 193.041 200.896 193.134 200.542 193.314C200.188 193.493 199.881 193.752 199.647 194.072V202.988C199.648 203.528 199.862 204.045 200.244 204.426C200.626 204.807 201.144 205.022 201.684 205.023V205.023Z" fill="#3F3D56"/>
<path d="M121.579 278.417C121.123 278.009 120.848 277.438 120.813 276.827C120.779 276.217 120.989 275.618 121.396 275.162L144.082 249.805C144.284 249.58 144.529 249.396 144.802 249.265C145.075 249.133 145.371 249.057 145.674 249.04C145.976 249.023 146.279 249.066 146.566 249.166C146.852 249.266 147.115 249.421 147.341 249.623C147.567 249.824 147.751 250.069 147.883 250.342C148.014 250.614 148.091 250.91 148.108 251.213C148.125 251.515 148.082 251.818 147.982 252.103C147.882 252.389 147.726 252.652 147.524 252.878L124.838 278.235C124.43 278.69 123.857 278.965 123.246 278.999C122.635 279.033 122.035 278.824 121.579 278.417Z" fill="#BCB73F"/>
<path d="M309.777 320.166C309.777 324.368 308.784 327.584 308.905 330.154C302.1 333.122 295.102 335.629 287.959 337.659C287.152 337.89 286.344 338.109 285.53 338.328C281.127 324.863 276.719 312.534 274.982 311.226C271.006 308.246 269.016 320.575 269.016 317.595C269.016 314.615 271.006 314.615 266.038 310.644C261.064 306.672 264.047 288.798 264.047 288.798L257.088 270.925L264.873 242.416L274.982 205.383H284.924C284.924 205.383 285.218 205.597 285.709 205.994C288.196 208.023 295.697 214.801 294.866 222.266C294.618 224.491 295.172 230.958 296.136 239.569C299.067 265.57 305.801 293.836 305.801 301.295C305.801 311.226 309.777 314.206 309.777 320.166Z" fill="#E6E6E6"/>
<path d="M301.44 239.472C301.428 239.443 301.423 239.42 301.411 239.397C301.188 238.797 300.928 238.212 300.632 237.644C298.953 234.492 300.73 229.65 298.838 224.301C295.779 215.632 292.052 210.519 286.587 205.937C286.426 205.799 286.264 205.666 286.097 205.528L286.091 205.522C282.444 202.531 278.047 199.735 272.589 196.254C271.452 195.528 270.263 194.772 269.028 193.977C267.436 192.957 267.522 189.556 267.615 185.959C267.718 181.965 267.828 177.827 265.866 175.244L265.739 175.077L265.537 175.025C258.811 173.696 251.95 173.168 245.099 173.452H245.093C242.184 173.56 239.296 173.983 236.478 174.714C236.271 174.772 236.063 174.829 235.861 174.899C235.705 174.939 235.549 174.991 235.393 175.043L235.266 175.089L235.168 175.181C233.27 177.077 232.831 180.478 232.624 184.023V184.029C232.583 184.674 232.549 185.32 232.52 185.965C232.358 189.412 232.208 192.669 230.939 194.081C228.107 197.285 224.685 199.915 220.858 201.827C214.897 204.767 210.183 204.675 210.114 204.675L209.566 204.658L209.514 205.199C205.555 212.733 205.705 232.169 205.584 252.982C205.578 254.141 205.571 255.305 205.561 256.475C205.492 266.17 205.307 276.032 204.58 285.018C204.263 288.88 203.853 292.574 203.305 296.027C200.639 312.84 188.562 298.88 182.786 310.068C182.976 311.168 183.295 312.242 183.738 313.267C184.402 313.659 185.082 314.039 185.758 314.42C188.752 316.085 191.803 317.64 194.909 319.083C195.082 319.163 195.255 319.244 195.428 319.319C201.126 321.952 206.999 324.19 213.005 326.017C214.176 326.374 215.347 326.714 216.53 327.037C226.994 329.922 237.768 331.534 248.619 331.838C248.663 331.833 248.707 331.831 248.752 331.832C261.584 331.478 274.333 329.642 286.743 326.362C286.916 326.316 287.089 326.27 287.262 326.224C288.076 326.005 288.884 325.786 289.692 325.555C296.834 323.525 303.832 321.018 310.638 318.051C310.645 318.304 310.67 318.556 310.713 318.806C310.719 318.887 310.73 318.968 310.747 319.048C310.759 318.956 310.77 318.864 310.776 318.771C310.811 318.5 310.84 318.224 310.869 317.947C314.4 283.548 307.066 254.342 301.44 239.472Z" fill="#D74D22"/>
<path d="M222.137 155.164C225.659 161.597 231.269 166.64 238.043 169.463C244.818 172.286 252.352 172.72 259.407 170.693C266.461 168.667 272.614 164.301 276.853 158.315C281.091 152.329 283.162 145.08 282.725 137.761C282.288 130.442 279.369 123.49 274.448 118.049C269.527 112.609 262.898 109.005 255.653 107.831C248.408 106.656 240.978 107.982 234.587 111.589C228.197 115.196 223.227 120.869 220.495 127.674C220.348 128.044 220.214 128.413 220.081 128.797C218.537 133.087 217.922 137.656 218.276 142.201C218.631 146.746 219.946 151.165 222.137 155.164V155.164Z" fill="#FFB6B6"/>
<path d="M217.493 128.797C218.884 124.912 218.277 126.936 219.682 123.066C218.765 126.493 220.214 128.413 220.081 128.797H258.545V106.462C247.276 102.001 236.259 98.2051 229.605 106.462C223.675 106.463 217.988 108.816 213.795 113.004C209.601 117.193 207.246 122.874 207.245 128.797H217.493Z" fill="#2C2A2A"/>
<path d="M241.151 183.517C240.584 185.054 239.803 186.463 238.578 187.588C236.583 182.472 236.238 176.853 237.601 171.522L236.647 171.229C235.523 174.346 234.399 177.477 233.29 180.594C232.383 183.094 231.472 185.655 230.97 188.31C230.975 188.181 230.984 188.047 230.994 187.907C231.113 186.258 231.513 183.987 232.056 181.265C232.302 180.031 232.576 178.707 232.866 177.313C233.848 172.584 234.998 167.043 235.766 161.436C236.759 154.182 237.126 146.744 235.637 140.729C234.172 134.809 230.89 130.211 224.628 128.585C224.926 118.751 229.07 111.598 235.595 106.875C242.227 102.073 251.359 99.7538 261.502 99.7538C271.566 99.7538 278.7 103.504 283.335 109.723C287.987 115.965 290.164 124.751 290.164 134.883C290.164 144.904 285.005 154.007 277.288 160.618C269.571 167.229 259.332 171.312 249.258 171.312C247.001 171.312 245.512 172.091 244.496 173.387C243.51 174.644 243.005 176.345 242.581 178.102C242.48 178.521 242.384 178.944 242.287 179.369C241.969 180.761 241.647 182.171 241.151 183.517ZM230.766 189.558C230.766 189.558 230.766 189.559 230.766 189.559L230.998 189.591C230.998 189.59 230.998 189.59 230.998 189.589L230.766 189.558Z" fill="#2C2A2A" stroke="black"/>
<path d="M288.114 131.759C301.182 131.759 311.775 121.177 311.775 108.124C311.775 95.0709 301.182 84.4894 288.114 84.4894C275.047 84.4894 264.453 95.0709 264.453 108.124C264.453 121.177 275.047 131.759 288.114 131.759Z" fill="#2C2A2A"/>
<path d="M325 243.668C324.919 244.884 324.848 246.179 324.787 247.553C323.563 273.427 324.619 308.258 316.373 327.158C314.527 328.167 312.661 329.131 310.776 330.051C310.701 330.086 310.632 330.121 310.569 330.155C310.061 330.403 309.553 330.645 309.045 330.876C309.027 330.891 309.005 330.903 308.982 330.91C303.406 333.542 297.659 335.797 291.781 337.66C291.059 337.89 290.332 338.109 289.605 338.328C289.449 338.374 289.294 338.421 289.138 338.467C278.063 341.738 266.614 343.577 255.07 343.937C254.47 343.954 253.881 343.965 253.31 343.977C253.108 343.983 252.912 343.988 252.716 343.988C252.07 343.994 251.429 344 250.783 344C249.479 344 248.181 343.981 246.888 343.942C236.037 343.638 225.263 342.026 214.799 339.141C213.617 338.818 212.445 338.478 211.274 338.121C205.268 336.294 199.395 334.057 193.698 331.423C193.524 331.348 193.351 331.268 193.178 331.187C190.074 329.746 187.023 328.192 184.027 326.524C183.351 326.143 182.671 325.763 182.007 325.371C181.564 324.346 181.245 323.272 181.055 322.172C179.745 315.884 178.695 320.126 177.945 307.042C177.258 295.047 176.82 283.018 176.658 276.142C176.606 274.309 176.589 272.839 176.583 271.836C177.195 267.467 187.027 262.51 201.366 257.801C202.722 257.357 204.124 256.913 205.561 256.475C209.439 255.282 213.582 254.112 217.91 252.982C228.931 250.1 241.17 247.455 253.316 245.27C259.311 244.198 265.284 243.235 271.083 242.417C281.256 240.976 290.881 239.979 299.115 239.57C299.905 239.529 300.678 239.495 301.44 239.472C302.259 239.437 303.061 239.414 303.846 239.397C315.71 239.137 323.811 240.371 325 243.668Z" fill="#2C2A2A"/>
<path opacity="0.2" d="M325 243.668C324.919 244.884 324.848 246.179 324.787 247.553C315.796 237.881 218.948 281.087 177.945 307.042C177.258 295.047 176.819 283.018 176.658 276.142C176.606 274.309 176.589 272.839 176.583 271.836C177.195 267.467 187.027 262.51 201.366 257.801C202.722 257.357 204.124 256.913 205.561 256.475C209.439 255.282 213.582 254.112 217.91 252.982C228.931 250.1 241.17 247.455 253.316 245.27C259.311 244.198 265.284 243.235 271.083 242.417C281.256 240.976 290.88 239.979 299.115 239.57C299.905 239.529 300.678 239.495 301.44 239.472C302.259 239.437 303.061 239.414 303.846 239.397C315.71 239.137 323.811 240.371 325 243.668Z" fill="black"/>
<path d="M128.043 273.647C128.951 274.791 130.099 275.722 131.406 276.374C132.714 277.027 134.148 277.385 135.609 277.424C137.07 277.463 138.522 277.181 139.862 276.599C141.202 276.017 142.398 275.148 143.366 274.054L176.226 287.535L172.68 269.439L142.019 259.411C140.071 257.909 137.64 257.173 135.185 257.342C132.731 257.511 130.423 258.573 128.701 260.328C126.978 262.083 125.959 264.408 125.838 266.863C125.717 269.318 126.501 271.732 128.043 273.647V273.647Z" fill="#FFB6B6"/>
<path d="M237.352 198.29L237.171 198.271L218.009 199.66C215.576 199.837 213.209 200.528 211.064 201.688C208.919 202.848 207.045 204.451 205.568 206.39C204.881 207.288 204.287 208.253 203.793 209.27L203.788 209.273C202.137 212.65 201.639 216.474 202.371 220.16L211.393 265.524L189.686 263.554L181.762 264.906L172.412 261.138L153.225 261.464L152.78 262.933L148.755 276.261L148.439 277.308L177.738 295.751L186.232 293.17L190.234 296.24L190.426 296.245L198.361 296.402L232.202 297.065L241.453 280.695L242.898 278.128C253.641 254.087 256.292 237.304 255.451 225.743C255.011 219.634 253.597 214.99 251.885 211.49C246.592 200.676 237.724 198.381 237.352 198.29Z" fill="#25862F"/>
<path d="M291.107 129.107C286.62 128.1 282.46 125.977 279.013 122.936C275.566 119.895 272.943 116.033 271.388 111.71C269.999 107.688 269.476 103.272 267.145 99.6922C270.695 94.8228 273.542 89.479 275.602 83.8177C276.399 81.6261 278.266 77.6474 275.101 76.4417C272.579 75.4812 269.714 77.7995 268.219 79.6289C267.083 81.0151 266.269 82.6352 265.834 84.373C265.318 82.0991 264.803 79.8251 264.287 77.5512C264.222 77.333 264.075 77.1485 263.876 77.036C263.678 76.9236 263.444 76.8918 263.223 76.9474C258.998 77.6668 255.934 81.5745 255.402 85.6904C255.111 87.8094 255.594 89.9621 256.761 91.755C258.118 93.8174 260.106 95.2961 261.997 96.833C264.008 98.4675 265.713 100.208 266.794 102.599C267.918 105.083 268.424 107.801 269.17 110.41C270.585 115.42 273.327 119.956 277.107 123.54C280.886 127.124 285.564 129.624 290.646 130.775C291.732 131.012 292.196 129.345 291.107 129.107ZM267.248 87.771C267.112 85.5989 267.687 83.4415 268.886 81.6241C269.485 80.7025 270.237 79.8891 271.109 79.2183C271.935 78.5875 273.155 77.7522 274.248 77.9839C275.666 78.2844 275.096 79.8657 274.795 80.8193C274.397 82.0774 273.96 83.3222 273.484 84.5535C272.556 86.9448 271.478 89.2755 270.258 91.5321C269.625 92.7067 268.948 93.8564 268.241 94.9873C267.753 92.8377 267.266 90.6882 266.779 88.5386C266.932 88.4824 267.062 88.376 267.147 88.2366C267.233 88.0972 267.268 87.9332 267.248 87.771V87.771ZM257.139 88.1151C256.856 86.1509 257.266 84.1496 258.3 82.455C259.334 80.7603 260.926 79.4783 262.804 78.8291C264.178 84.8891 265.552 90.949 266.926 97.0089C266.642 97.4267 266.349 97.8382 266.056 98.2493C265.979 98.161 265.909 98.0698 265.829 97.9829C262.947 94.8501 257.922 92.7145 257.139 88.1151V88.1151Z" fill="#F0F500"/>
</svg>
